<svg width="1140" height="237" viewBox="0 0 1140 237" fill="none" xmlns="http://www.w3.org/2000/svg">
<path d="M0 40C0 17.9086 17.9086 0 40 0H1132C1136.42 0 1140 3.58172 1140 8V187C1140 209.091 1122.09 227 1100 227H8.00001C3.58173 227 0 223.418 0 219V40Z" fill="#5E50A1"/>
<path d="M115.803 191.535C65.8759 209.6 20.5718 184.008 4.16058 168.954C1.38686 166.05 0.23114 163.712 -3.23875e-06 162.906L0 237L1140 237L1140 -4.05462e-06C1103.48 56.318 1011.16 170.97 934.051 179.035C837.664 189.117 735.73 151.211 610.912 191.535C486.095 231.859 389.015 208.873 331.46 191.535C273.905 174.197 178.212 168.954 115.803 191.535Z" fill="white" fill-opacity="0.05"/>
</svg>
